HIERARCHY
ROOT Hips
{
	OFFSET 0.00000 0.00000 0.00000
	CHANNELS 6 Xposition Yposition Zposition Zrotation Yrotation Xrotation 
	JOINT LHipJoint
	{
		OFFSET 0 0 0
		CHANNELS 3 Zrotation Yrotation Xrotation
		JOINT LeftHip
		{
			OFFSET 1.26600 -1.82114 0.91038
			CHANNELS 3 Zrotation Yrotation Xrotation
			JOINT LeftKnee
			{
				OFFSET 2.50076 -6.87080 0.00000
				CHANNELS 3 Zrotation Yrotation Xrotation
				JOINT LeftAnkle
				{
					OFFSET 2.57364 -7.07102 0.00000
					CHANNELS 3 Zrotation Yrotation Xrotation
					JOINT LeftToe
					{
						OFFSET 0.13572 -0.37290 1.97004
						CHANNELS 3 Zrotation Yrotation Xrotation
						End Site
						{
							OFFSET 0.00000 -0.00000 1.01383
						}
					}
				}
			}
		}
	}
	JOINT RHipJoint
	{
		OFFSET 0 0 0
		CHANNELS 3 Zrotation Yrotation Xrotation
		JOINT RightHip
		{
			OFFSET -1.20803 -1.82114 0.91038
			CHANNELS 3 Zrotation Yrotation Xrotation
			JOINT RightKnee
			{
				OFFSET -2.54916 -7.00377 0.00000
				CHANNELS 3 Zrotation Yrotation Xrotation
				JOINT RightAnkle
				{
					OFFSET -2.56374 -7.04382 0.00000
					CHANNELS 3 Zrotation Yrotation Xrotation
					JOINT RightToe
					{
						OFFSET -0.23520 -0.64621 2.09921
						CHANNELS 3 Zrotation Yrotation Xrotation
						End Site
						{
							OFFSET -0.00000 -0.00000 1.10065
						}
					}
				}
			}
		}
	}
	JOINT lowerback
	{
		OFFSET 0 0 0
		CHANNELS 3 Zrotation Yrotation Xrotation
		JOINT Chest
		{
			OFFSET 0.05492 2.10797 -0.12074
			CHANNELS 3 Zrotation Yrotation Xrotation
			JOINT Chest2
			{
				OFFSET 0.04577 2.11592 -0.04483
				CHANNELS 3 Zrotation Yrotation Xrotation
				JOINT lowerneck
				{
					OFFSET 0 0 0
					CHANNELS 3 Zrotation Yrotation Xrotation
					JOINT Neck
					{
						OFFSET -0.10759 1.80167 0.15770
						CHANNELS 3 Zrotation Yrotation Xrotation
						JOINT Head
						{
							OFFSET 0.09237 1.77509 -0.40848
							CHANNELS 3 Zrotation Yrotation Xrotation
							End Site
							{
								OFFSET 0.03805 1.84093 -0.15754
							}
						}
					}
				}
				JOINT LeftCollar
				{
					OFFSET 0 0 0
					CHANNELS 3 Zrotation Yrotation Xrotation
					JOINT LeftShoulder
					{
						OFFSET 3.42372 1.09575 -0.28209
CHANNELS 3 Zrotation Xrotation Yrotation
						JOINT LeftElbow
						{
OFFSET 0 -4.956810 0.000000
CHANNELS 3 Zrotation Xrotation Yrotation
							JOINT LeftWrist
							{
OFFSET 0 -3.409150 0.000000
CHANNELS 3 Zrotation Xrotation Yrotation
								JOINT lhand
								{
									OFFSET 0 0 0
CHANNELS 3 Zrotation Xrotation Yrotation
									JOINT LFingers
									{
OFFSET 0 -0.616400 0.000000
CHANNELS 3 Zrotation Xrotation Yrotation
										End Site
										{
OFFSET 0 -0.496960 0.000000
										}
									}
								}
								JOINT LThumb
								{
OFFSET 0 0.000000 0.000000
CHANNELS 3 Zrotation Xrotation Yrotation
									End Site
									{
OFFSET 0 -0.504550 0.504550
									}
								}
							}
						}
					}
				}
				JOINT RightCollar
				{
					OFFSET 0 0 0
					CHANNELS 3 Zrotation Yrotation Xrotation
					JOINT RightShoulder
					{
						OFFSET -3.24731 1.15872 -0.32221
CHANNELS 3 Zrotation Xrotation Yrotation
						JOINT RightElbow
						{
OFFSET 0 -5.352000 0.000000
CHANNELS 3 Zrotation Xrotation Yrotation
							JOINT RightWrist
							{
OFFSET 0 -3.437210 -0.000000
CHANNELS 3 Zrotation Xrotation Yrotation
								JOINT rhand
								{
									OFFSET 0 0 0
CHANNELS 3 Zrotation Xrotation Yrotation
									JOINT RFingers
									{
OFFSET 0 -0.720090 0.000000
CHANNELS 3 Zrotation Xrotation Yrotation
										End Site
										{
OFFSET 0 -0.580560 0.000000
										}
									}
								}
								JOINT RThumb
								{
OFFSET 0 0.000000 0.000000
CHANNELS 3 Zrotation Xrotation Yrotation
									End Site
									{
OFFSET 0 -0.589420 0.589420
									}
								}
							}
						}
					}
				}
			}
		}
	}
}
MOTION
Frames: 11
Frame Time: 0.008333333333333333
-2.302200 17.192400 -22.374100 -1.698100 -4.071000 1.116900 0.000000 0.000000 0.000000 -15.824400 -2.691800 -8.070500 2.411000 9.674200 27.927900 0.637400 -11.914300 -15.417800 0.018000 -0.867000 -2.383000 0.000000 0.000000 0.000000 25.692500 1.447100 -9.087500 -2.821200 -10.399800 30.281200 -1.306600 5.222400 -20.519800 -0.540800 -4.711800 13.088400 2.009800 -0.156800 2.315500 1.665900 -0.100600 -1.263300 0.588600 -0.070300 -2.596200 -13.750100 -11.831400 -3.756900 8.799300 -16.238700 14.173800 3.621900 -8.078900 6.785300 -0.000000 -0.000000 0.000000 -1.675400 4.445600 -20.221600 11.589600 -19.186400 1.965300 18.877500 9.785600 -21.782200 0.000000 0.000000 0.000000 -7.125000 0.000000 0.000000 -10.219500 52.588900 1.924900 -0.000000 -0.000000 0.000000 -0.895100 1.725500 14.460000 -12.944900 -21.206400 -2.433300 -23.061400 -12.099600 -11.513300 0.000000 0.000000 0.000000 7.125000 0.000000 -0.000000 2.858700 17.506200 1.868700
-2.322880 17.187095 -22.395170 -1.430516 -4.680823 1.010264 0.000000 0.000000 0.000000 -16.143395 -2.245131 -8.168148 2.422613 9.695870 27.997368 0.684350 -11.804493 -15.810602 0.000818 0.184840 0.507893 0.000000 0.000000 0.000000 25.438026 1.545115 -9.320379 -2.902037 -10.534685 30.726194 -1.310548 5.328511 -20.542303 -0.415651 -4.138104 11.465469 1.584327 -0.586425 2.680035 2.350717 -0.680066 -0.604115 1.555307 -0.345029 -2.112742 -15.106178 -11.348710 -5.369860 8.467994 -15.149599 14.257093 3.747480 -7.589808 7.046867 0.000000 0.000000 0.000000 -2.697656 2.965082 -19.201591 11.961406 -19.746589 2.089282 17.155502 9.635032 -20.540906 0.000000 0.000000 0.000000 -7.125000 0.000000 0.000000 -11.449107 51.038453 1.722038 0.000000 0.000000 0.000000 -2.705968 0.321161 15.497625 -12.587639 -20.680023 -2.305595 -23.339470 -12.202723 -11.631462 0.000000 0.000000 0.000000 7.125000 0.000000 0.000000 2.669529 17.352313 1.753973
-2.365678 17.178954 -22.402845 -1.221040 -4.316388 1.026318 0.000000 0.000000 0.000000 -16.193611 -2.600865 -8.112009 2.425710 9.701574 28.015627 0.684597 -11.873908 -15.835814 0.000436 -0.134995 -0.370839 0.000000 0.000000 0.000000 25.395710 1.445972 -9.481390 -2.936886 -10.592167 30.916474 -1.331138 5.263823 -20.714598 -0.481596 -4.450258 12.347018 1.243087 -0.949820 2.998541 2.440382 -1.157243 -0.916550 1.871606 -0.577724 -2.597352 -14.938278 -10.784214 -4.362444 7.847695 -14.451568 14.500819 3.668468 -7.321039 6.807896 0.000000 0.000000 0.000000 -2.017154 3.554453 -20.311667 12.548729 -20.622436 2.291957 18.198855 8.838085 -21.117787 0.000000 0.000000 0.000000 -7.125000 0.000000 0.000000 -10.641488 51.796580 1.797278 0.000000 0.000000 0.000000 -2.993705 0.682330 14.993025 -11.957816 -19.741324 -2.088040 -23.682653 -12.309954 -12.738697 0.000000 0.000000 0.000000 7.125000 0.000000 0.000000 2.486962 16.121931 1.700611
-2.402155 17.179070 -22.410127 -1.379377 -4.791551 1.096631 0.000000 0.000000 0.000000 -16.011045 -3.012098 -8.019611 2.450007 9.746456 28.159594 0.739131 -10.785432 -16.025859 0.023725 -0.994374 -2.733309 0.000000 0.000000 0.000000 25.663311 1.609879 -9.487461 -2.924728 -10.572229 30.850477 -1.322689 5.494009 -20.627184 -0.434965 -4.232098 11.730676 1.405831 -0.990895 3.040614 2.748569 -1.211172 -0.459426 2.094172 -0.605955 -2.146603 -14.352323 -10.510210 -5.875433 6.446311 -13.740575 15.717849 3.122343 -7.013191 7.237531 0.000000 0.000000 0.000000 -2.011221 2.507298 -20.473660 13.297096 -21.720915 2.562249 19.386430 8.452483 -21.491000 0.000000 0.000000 0.000000 -7.125000 0.000000 0.000000 -9.603173 52.383057 1.758408 0.000000 0.000000 0.000000 -3.544281 -0.080698 15.051964 -12.017480 -19.830770 -2.108178 -23.608580 -11.768058 -11.576584 0.000000 0.000000 0.000000 7.125000 0.000000 0.000000 2.478885 17.385563 1.626765
-2.445110 17.170883 -22.393665 -1.652450 -4.795097 0.682162 0.000000 0.000000 0.000000 -15.527384 -2.830689 -7.853772 2.544830 9.918996 28.714836 0.740764 -10.597348 -15.993692 0.110038 -2.138071 -5.887299 0.000000 0.000000 0.000000 26.097252 1.045079 -8.928877 -2.876854 -10.492936 30.588126 -1.312898 6.010992 -20.514632 -0.572396 -4.844858 13.466604 2.322191 -0.968845 2.782440 2.632441 -1.200580 0.664702 1.439738 -0.603799 -0.868901 -14.122150 -10.016870 -7.992305 6.279304 -12.824562 17.262726 3.022398 -6.536596 7.989023 0.000000 0.000000 0.000000 -0.844907 0.219682 -21.336029 13.554599 -22.094392 2.658337 18.461564 8.227834 -21.895842 0.000000 0.000000 0.000000 -7.125000 0.000000 0.000000 -10.677630 52.630162 2.023437 0.000000 0.000000 0.000000 -3.290455 -1.701749 14.579623 -12.074980 -19.916925 -2.127775 -23.771356 -11.887398 -11.064489 0.000000 0.000000 0.000000 7.125000 0.000000 0.000000 2.340639 17.924512 1.508191
-2.510925 17.173268 -22.438097 -1.513995 -4.973298 1.056027 0.000000 0.000000 0.000000 -15.445339 -3.770332 -8.523961 2.697108 10.187730 29.586993 0.754795 -10.148776 -16.018477 0.056930 -1.528234 -4.203783 0.000000 0.000000 0.000000 26.190918 1.540612 -9.480236 -2.910955 -10.549490 30.775079 -1.298989 6.082086 -20.399045 -0.616428 -5.021327 13.970162 1.890731 -1.033251 3.522320 2.768214 -1.233699 -0.364117 1.853103 -0.623057 -2.328333 -13.025772 -8.078448 -7.460265 4.858924 -10.267249 21.066776 2.706546 -5.444232 8.756992 0.000000 0.000000 0.000000 -0.335603 2.038428 -21.556634 14.400371 -23.304073 2.984699 17.448371 7.022847 -22.482719 0.000000 0.000000 0.000000 -7.125000 0.000000 0.000000 -11.923835 53.039310 2.385410 0.000000 0.000000 0.000000 -3.356666 -0.198433 14.823143 -12.222907 -20.138060 -2.178456 -23.696585 -11.302619 -10.073716 0.000000 0.000000 0.000000 7.125000 0.000000 0.000000 2.350940 19.005185 1.458490
-2.567788 17.182529 -22.441869 -2.682217 -5.069321 0.787359 0.000000 0.000000 0.000000 -13.865518 -4.136543 -9.742162 3.265330 11.112223 32.659845 0.680987 -9.566143 -15.191548 0.217772 -3.001332 -8.282719 0.000000 0.000000 0.000000 27.690235 1.096720 -8.538741 -2.703856 -10.199392 29.624958 -1.214329 6.186153 -19.700570 -0.619503 -5.037065 14.014215 3.398913 -1.056770 3.711825 3.104543 -1.198336 -0.003077 1.352309 -0.618765 -2.088627 -11.463731 -5.867546 -10.255652 3.713653 -6.991718 26.961490 2.388318 -3.956229 10.955916 0.000000 0.000000 0.000000 0.256731 1.665810 -21.873928 14.978378 -24.115950 3.217163 17.437166 6.473576 -22.679020 0.000000 0.000000 0.000000 -7.125000 0.000000 0.000000 -12.017556 53.233994 2.462149 0.000000 0.000000 0.000000 -3.235609 -0.816218 14.140430 -12.276490 -20.217942 -2.196874 -23.118715 -11.951029 -10.862622 0.000000 0.000000 0.000000 7.125000 0.000000 0.000000 2.791166 18.202382 1.781914
-2.618921 17.207661 -22.501176 -2.683375 -4.799915 0.358827 0.000000 0.000000 0.000000 -13.144181 -4.561023 -13.124364 4.513655 12.813624 38.675791 0.271363 -10.447223 -11.057159 0.085969 -1.891140 -5.204938 0.000000 0.000000 0.000000 27.869789 0.346393 -7.923957 -2.486959 -9.814120 28.376842 -1.115952 6.418218 -18.863332 -0.710143 -5.385874 15.012497 3.700778 -1.254206 4.527387 3.472191 -1.420047 0.593945 1.585477 -0.726283 -1.929641 -10.128220 -3.606161 -13.312984 2.355847 -3.346812 32.496831 2.166184 -2.430896 13.420233 0.000000 0.000000 0.000000 0.242242 0.724492 -21.971729 15.549986 -24.906635 3.454265 15.614594 4.648397 -21.476554 0.000000 0.000000 0.000000 -7.125000 0.000000 0.000000 -13.314731 51.715953 2.234980 0.000000 0.000000 0.000000 -3.735512 -1.646743 14.953765 -12.583075 -20.673301 -2.304064 -24.251390 -12.425231 -10.526520 0.000000 0.000000 0.000000 7.125000 0.000000 0.000000 1.977675 18.464473 1.250275
-2.687712 17.244420 -22.561211 -4.082003 -4.560774 -0.195386 0.000000 0.000000 0.000000 -10.044711 -4.011771 -19.774709 7.012947 15.339284 48.917169 -0.274090 -10.488963 -1.351365 0.137163 -2.386564 -6.575330 0.000000 0.000000 0.000000 29.651470 -1.012331 -6.704305 -2.117521 -9.106260 26.128610 -0.980548 6.726702 -17.671357 -0.687387 -5.299814 14.765913 5.414543 -0.997978 5.589607 3.895013 -0.947936 1.405887 1.047269 -0.489640 -1.705442 -8.630527 -2.186198 -14.214890 1.674087 -1.319461 35.286669 1.986022 -1.517067 14.676599 0.000000 0.000000 0.000000 0.608056 -0.224446 -22.642269 16.305705 -25.933391 3.778709 17.086255 5.498036 -21.706141 0.000000 0.000000 0.000000 -7.125000 0.000000 0.000000 -11.965328 52.196987 2.145186 0.000000 0.000000 0.000000 -3.870133 -1.825407 15.589654 -13.592330 -22.148789 -2.672457 -23.760469 -14.561799 -10.663079 0.000000 0.000000 0.000000 7.125000 0.000000 0.000000 2.330066 18.362569 1.482900
-2.744013 17.288851 -22.609775 -5.183251 -4.017619 -0.785100 0.000000 0.000000 0.000000 -7.137835 -4.022795 -29.126114 11.094800 17.976014 63.082759 0.216592 -4.675945 11.743940 0.051215 -1.377630 -3.789896 0.000000 0.000000 0.000000 31.106205 -2.532240 -4.295835 -1.507223 -7.752456 21.965545 -0.808929 6.440114 -16.043590 -0.859273 -5.911080 16.526646 6.735635 -0.939425 6.681914 4.446188 -0.744682 2.358487 0.878288 -0.371476 -1.329245 -8.596019 -1.331118 -14.885034 1.770292 0.028773 36.452359 2.268300 -0.951543 15.292359 0.000000 0.000000 0.000000 0.573510 -1.061256 -23.441780 17.465086 -27.466707 4.299705 15.371274 4.499631 -22.448054 0.000000 0.000000 0.000000 -7.125000 0.000000 0.000000 -13.965683 52.635040 2.666036 0.000000 0.000000 0.000000 -4.609763 -2.399282 17.090728 -14.100293 -22.877754 -2.867113 -23.998698 -15.932998 -11.885125 0.000000 0.000000 0.000000 7.125000 0.000000 0.000000 2.221997 17.012774 1.475965
-2.787259 17.402203 -22.609407 -5.879299 -3.362409 -1.204482 0.000000 0.000000 0.000000 -5.037258 -3.497857 -40.232725 16.983260 19.779275 81.147954 0.048297 -6.301521 10.148439 0.063777 1.623765 4.467213 0.000000 0.000000 0.000000 32.053521 -4.109892 -0.842291 -0.759197 -5.563789 15.524140 -0.517891 5.142768 -12.815413 -0.937719 -6.168043 17.272847 7.606610 -0.751305 7.516450 4.826763 -0.371711 2.787258 0.769331 -0.178131 -1.333711 -8.474425 -1.071278 -13.952471 1.694950 0.329303 36.620087 2.266308 -0.811941 15.131890 0.000000 0.000000 0.000000 0.315336 -0.827539 -23.863752 18.292120 -28.529674 4.687941 16.580442 4.786038 -21.149804 0.000000 0.000000 0.000000 -7.125000 0.000000 0.000000 -12.241659 51.553273 2.001121 0.000000 0.000000 0.000000 -5.203879 -2.307310 16.187632 -13.519867 -22.044139 -2.645228 -23.260301 -14.781569 -12.533673 0.000000 0.000000 0.000000 7.125000 0.000000 0.000000 2.768362 16.387234 1.877206
